<svg width="44" height="65" viewBox="0 0 44 65" fill="none" xmlns="http://www.w3.org/2000/svg">
<path d="M43.55 65H1.43V55.73L22.94 33.59C27.74 28.49 30.14 24.29 30.14 20.99C30.14 18.53 29.36 16.55 27.8 15.05C26.3 13.55 24.35 12.8 21.95 12.8C17.15 12.8 13.64 15.26 11.42 20.18L0.98 14.06C2.9 9.8 5.69 6.53 9.35 4.25C13.07 1.91 17.21 0.739996 21.77 0.739996C27.47 0.739996 32.36 2.54 36.44 6.14C40.52 9.68 42.56 14.48 42.56 20.54C42.56 27.08 39.11 33.8 32.21 40.7L19.88 53.03H43.55V65Z" fill="#B22000"/>
</svg>
