<svg width="16" height="14" viewBox="0 0 16 14" fill="none" xmlns="http://www.w3.org/2000/svg">
<path d="M8.66895 13.3635C8.58908 13.3476 8.51314 13.3158 8.44531 13.2708L8.35059 13.1936L8.27246 13.0989L8.21387 12.9905L8.17773 12.8723C8.16975 12.8322 8.16603 12.7913 8.16602 12.7502C8.16602 12.6679 8.18224 12.5861 8.21387 12.51C8.2456 12.4338 8.29201 12.364 8.35059 12.3059L8.35156 12.3069L13.1563 7.50024L1 7.50024C0.875651 7.50024 0.755263 7.46277 0.653321 7.39477L0.557618 7.31665L0.480469 7.22192C0.41241 7.11999 0.37504 6.99962 0.375001 6.87524C0.375001 6.70952 0.440472 6.55006 0.557618 6.43286C0.674827 6.31565 0.834239 6.25024 1 6.25024L13.1563 6.25024L8.34082 1.4436L8.2627 1.34888L8.2041 1.24145L8.16895 1.12427L8.15625 1.0022L8.16797 0.880126C8.1758 0.840095 8.18758 0.80086 8.20313 0.762939C8.23427 0.686994 8.28006 0.618061 8.33789 0.559814C8.39574 0.501553 8.46432 0.454775 8.54004 0.423095C8.61573 0.39145 8.69726 0.375534 8.7793 0.375244C8.86131 0.374988 8.94268 0.391004 9.01856 0.422119C9.09441 0.453265 9.16349 0.499107 9.22168 0.556884L15.0977 6.43286L15.1006 6.43481L15.0996 6.43579C15.1559 6.4932 15.2021 6.55996 15.2334 6.63403L15.2344 6.63794C15.2967 6.79002 15.2968 6.9605 15.2344 7.11255L15.2334 7.11646C15.2021 7.19056 15.156 7.25826 15.0996 7.31567L15.0977 7.31763L9.23242 13.1926L9.23145 13.1936C9.11437 13.3098 8.95601 13.3752 8.79102 13.3752L8.66895 13.3635Z" fill="#F6F6F6" stroke="#F6F6F6" stroke-width="0.75"/>
</svg>
