<svg width="24" height="24" viewBox="0 0 24 24" fill="none" xmlns="http://www.w3.org/2000/svg">
<g clip-path="url(#clip0_86_515)">
<path d="M21.75 12C21.75 14.5859 20.7228 17.0658 18.8943 18.8943C17.0658 20.7228 14.5859 21.75 12 21.75C9.41414 21.75 6.93419 20.7228 5.10571 18.8943C3.27723 17.0658 2.25 14.5859 2.25 12C2.25 9.41415 3.27723 6.9342 5.10571 5.10572C6.93419 3.27724 9.41414 2.25002 12 2.25002C14.5859 2.25002 17.0658 3.27724 18.8943 5.10572C20.7228 6.9342 21.75 9.41415 21.75 12ZM0 12C0 15.1826 1.26428 18.2349 3.51472 20.4853C5.76516 22.7357 8.8174 24 12 24C15.1826 24 18.2348 22.7357 20.4853 20.4853C22.7357 18.2349 24 15.1826 24 12C24 8.81742 22.7357 5.76517 20.4853 3.51473C18.2348 1.2643 15.1826 1.52588e-05 12 1.52588e-05C8.8174 1.52588e-05 5.76516 1.2643 3.51472 3.51473C1.26428 5.76517 0 8.81742 0 12ZM10.875 5.62502V12C10.875 12.375 11.0625 12.7266 11.3766 12.9375L15.8766 15.9375C16.3922 16.2844 17.0906 16.1438 17.4375 15.6235C17.7844 15.1031 17.6437 14.4094 17.1234 14.0625L13.125 11.4V5.62502C13.125 5.00158 12.6234 4.50002 12 4.50002C11.3766 4.50002 10.875 5.00158 10.875 5.62502Z" fill="#B32000"/>
</g>
<defs>
<clipPath id="clip0_86_515">
<rect width="24" height="24" fill="white"/>
</clipPath>
</defs>
</svg>
