<svg width="60" height="61" viewBox="0 0 60 61" fill="none" xmlns="http://www.w3.org/2000/svg">
<ellipse cx="30" cy="30.0353" rx="30" ry="30.0353" fill="#B22000"/>
<g clip-path="url(#clip0_86_433)">
<path d="M35.2148 17.291L42.7031 24.8672C45.7734 27.9727 45.7734 32.9648 42.7031 36.0703L36.1406 42.709C35.5957 43.2598 34.7051 43.2656 34.1543 42.7207C33.6035 42.1758 33.5977 41.2852 34.1426 40.7344L40.6992 34.0957C42.6855 32.0859 42.6855 28.8574 40.6992 26.8477L33.2168 19.2715C32.6719 18.7207 32.6777 17.8301 33.2285 17.2852C33.7793 16.7402 34.6699 16.7461 35.2148 17.2969V17.291ZM15 28.4473V19.6875C15 18.1348 16.2598 16.875 17.8125 16.875H26.5723C27.5684 16.875 28.5234 17.2676 29.2266 17.9707L39.0703 27.8145C40.5352 29.2793 40.5352 31.6523 39.0703 33.1172L31.248 40.9395C29.7832 42.4043 27.4102 42.4043 25.9453 40.9395L16.1016 31.0957C15.3926 30.3926 15 29.4434 15 28.4473ZM23.4375 23.4375C23.4375 22.9402 23.24 22.4633 22.8883 22.1117C22.5367 21.76 22.0598 21.5625 21.5625 21.5625C21.0652 21.5625 20.5883 21.76 20.2367 22.1117C19.885 22.4633 19.6875 22.9402 19.6875 23.4375C19.6875 23.9348 19.885 24.4117 20.2367 24.7633C20.5883 25.115 21.0652 25.3125 21.5625 25.3125C22.0598 25.3125 22.5367 25.115 22.8883 24.7633C23.24 24.4117 23.4375 23.9348 23.4375 23.4375Z" fill="white"/>
</g>
<defs>
<clipPath id="clip0_86_433">
<rect width="30" height="30" fill="white" transform="translate(15 15)"/>
</clipPath>
</defs>
</svg>
