<svg width="60" height="61" viewBox="0 0 60 61" fill="none" xmlns="http://www.w3.org/2000/svg">
<ellipse cx="30" cy="30.0353" rx="30" ry="30.0353" fill="#B22000"/>
<path d="M15 23.6666C15 21.8281 16.4948 20.3333 18.3333 20.3333H31.6667C33.5052 20.3333 35 21.8281 35 23.6666V37C35 38.8385 33.5052 40.3333 31.6667 40.3333H18.3333C16.4948 40.3333 15 38.8385 15 37V23.6666ZM44.1198 22.1979C44.6615 22.4896 45 23.0521 45 23.6666V37C45 37.6146 44.6615 38.1771 44.1198 38.4687C43.5781 38.7604 42.9219 38.7291 42.4062 38.3854L37.4063 35.0521L36.6667 34.5573V33.6666V27V26.1094L37.4063 25.6146L42.4062 22.2812C42.9167 21.9427 43.5729 21.9062 44.1198 22.1979Z" fill="white"/>
</svg>
