<svg width="60" height="61" viewBox="0 0 60 61" fill="none" xmlns="http://www.w3.org/2000/svg">
<ellipse cx="30" cy="30.0353" rx="30" ry="30.0353" fill="#B22000"/>
<g clip-path="url(#clip0_86_454)">
<path d="M35.625 19.6481C35.625 20.487 35.4434 21.2848 35.1094 22.0063L38.2031 27.3564C36.8145 28.8406 35.0273 29.9434 33.0176 30.5007L30 25.2797L26.0156 32.1726C27.2754 32.5715 28.6113 32.7886 30.0059 32.7886C34.1484 32.7886 37.8457 30.8703 40.2539 27.8609C40.9043 27.0513 42.082 26.9223 42.8906 27.5676C43.6992 28.2129 43.8281 29.3979 43.1836 30.2074C40.084 34.0674 35.332 36.543 30 36.543C27.9258 36.543 25.9336 36.1675 24.0996 35.4812L20.7832 41.2184C20.5078 41.6936 20.0977 42.0807 19.6055 42.3271L16.3594 43.9521C16.0664 44.0987 15.7207 44.0811 15.4453 43.911C15.1699 43.7409 15 43.4359 15 43.1132V39.8633C15 39.3705 15.1289 38.8836 15.3809 38.4495L18.8965 32.3662C18.1465 31.7092 17.4492 30.9876 16.8281 30.2074C16.1777 29.3979 16.3125 28.2187 17.1211 27.5676C17.9297 26.9164 19.1074 27.0513 19.7578 27.8609C20.0918 28.2774 20.4492 28.6704 20.8242 29.04L24.8906 22.0063C24.5625 21.2907 24.375 20.4928 24.375 19.6481C24.375 16.539 26.8945 14.0165 30 14.0165C33.1055 14.0165 35.625 16.539 35.625 19.6481ZM36.8555 37.1237C38.7656 36.3729 40.5176 35.3169 42.0645 34.0205L44.625 38.4495C44.8711 38.8778 45.0059 39.3647 45.0059 39.8633V43.1132C45.0059 43.4359 44.8359 43.7409 44.5605 43.911C44.2852 44.0811 43.9395 44.0987 43.6465 43.9521L40.4004 42.3271C39.9082 42.0807 39.498 41.6936 39.2227 41.2184L36.8555 37.1237ZM30 21.5253C30.4973 21.5253 30.9742 21.3275 31.3258 20.9755C31.6775 20.6234 31.875 20.146 31.875 19.6481C31.875 19.1502 31.6775 18.6728 31.3258 18.3207C30.9742 17.9687 30.4973 17.7709 30 17.7709C29.5027 17.7709 29.0258 17.9687 28.6742 18.3207C28.3225 18.6728 28.125 19.1502 28.125 19.6481C28.125 20.146 28.3225 20.6234 28.6742 20.9755C29.0258 21.3275 29.5027 21.5253 30 21.5253Z" fill="white"/>
</g>
<defs>
<clipPath id="clip0_86_454">
<rect width="30" height="30.0353" fill="white" transform="translate(15 14.0165)"/>
</clipPath>
</defs>
</svg>
