<svg width="60" height="61" viewBox="0 0 60 61" fill="none" xmlns="http://www.w3.org/2000/svg">
<ellipse cx="30" cy="30.0353" rx="30" ry="30.0353" fill="#B22000"/>
<g clip-path="url(#clip0_86_418)">
<path d="M28.2384 15.0704C28.5372 15.1934 28.7481 15.463 28.8009 15.7794L29.4102 19.4356C28.045 20.0684 26.8966 21.0997 26.129 22.3829C25.2735 21.8556 24.2657 21.5567 23.1876 21.5567C20.0821 21.5567 17.5626 24.0763 17.5626 27.1817C17.5626 29.2618 18.6934 31.0841 20.3751 32.0567C20.422 33.92 21.1485 35.6134 22.3145 36.9024L19.0333 39.1993C18.7696 39.3809 18.4298 39.422 18.1309 39.2931C17.8321 39.1642 17.6212 38.9005 17.5684 38.5841L16.7481 33.627L11.7852 32.8009C11.4688 32.7481 11.1993 32.5372 11.0763 32.2384C10.9532 31.9395 10.9884 31.5997 11.17 31.336L14.0763 27.1876L11.17 23.0392C10.9825 22.7755 10.9474 22.4356 11.0763 22.1368C11.2052 21.838 11.4688 21.627 11.7852 21.5743L16.7481 20.7481L17.5743 15.7852C17.627 15.4688 17.838 15.1993 18.1368 15.0763C18.4356 14.9532 18.7755 14.9884 19.0392 15.17L23.1876 18.0763L27.336 15.17C27.5997 14.9825 27.9395 14.9474 28.2384 15.0763V15.0704ZM23.1876 23.4376C23.9962 23.4376 24.752 23.6954 25.3614 24.1349C25.2911 24.3751 25.2325 24.6212 25.1856 24.8731C22.9649 25.7286 21.2481 27.6036 20.627 29.9356C19.8946 29.2442 19.4376 28.2716 19.4376 27.1876C19.4376 25.1192 21.1192 23.4376 23.1876 23.4376ZM27.254 39.6095C27.8985 40.0431 28.0743 40.9161 27.6466 41.5606L25.7716 44.3731C25.338 45.0177 24.4649 45.1934 23.8204 44.7657C23.1759 44.338 23.0001 43.4591 23.4278 42.8145L25.3028 40.002C25.7364 39.3575 26.6095 39.1817 27.254 39.6095ZM32.879 39.6095C33.5235 40.0431 33.6993 40.9161 33.2716 41.5606L31.3966 44.3731C30.963 45.0177 30.0899 45.1934 29.4454 44.7657C28.8009 44.338 28.6251 43.4591 29.0528 42.8145L30.9278 40.002C31.3614 39.3575 32.2345 39.1817 32.879 39.6095ZM38.504 39.6095C39.1485 40.0431 39.3243 40.9161 38.8966 41.5606L37.0216 44.3731C36.588 45.0177 35.7149 45.1934 35.0704 44.7657C34.4259 44.338 34.2501 43.4591 34.6778 42.8145L36.5528 40.002C36.9864 39.3575 37.8595 39.1817 38.504 39.6095ZM44.129 39.6095C44.7735 40.0431 44.9493 40.9161 44.5216 41.5606L42.6466 44.3731C42.213 45.0177 41.3399 45.1934 40.6954 44.7657C40.0509 44.338 39.8751 43.4591 40.3028 42.8145L42.1778 40.002C42.6114 39.3575 43.4845 39.1817 44.129 39.6095ZM48.4942 32.8067C48.4942 35.3966 46.3966 37.4942 43.8067 37.4942H27.8751C24.7696 37.4942 22.2501 34.9747 22.2501 31.8692C22.2501 29.0802 24.2774 26.7716 26.9376 26.3263V26.2501C26.9376 23.1446 29.4571 20.6251 32.5626 20.6251C34.6075 20.6251 36.3946 21.7149 37.379 23.3438C38.1407 22.8106 39.0665 22.5001 40.0626 22.5001C42.6524 22.5001 44.7501 24.5977 44.7501 27.1876C44.7501 27.5333 44.7149 27.8731 44.6388 28.1954C46.8302 28.588 48.4942 30.504 48.4942 32.8067Z" fill="white"/>
</g>
<defs>
<clipPath id="clip0_86_418">
<rect width="37.5" height="30" fill="white" transform="translate(11 15)"/>
</clipPath>
</defs>
</svg>
