<svg width="60" height="61" viewBox="0 0 60 61" fill="none" xmlns="http://www.w3.org/2000/svg">
<ellipse cx="30" cy="30.0353" rx="30" ry="30.0353" fill="#B22000"/>
<g clip-path="url(#clip0_284_56)">
<path d="M25.2364 17.6426C26.2617 15.9961 28.0664 15 30 15C31.9336 15 33.7383 15.9961 34.7637 17.6426L37.0254 21.2578L38.6075 20.3437C39.0996 20.0566 39.7149 20.0977 40.166 20.4434C40.6172 20.7891 40.8164 21.375 40.67 21.9258L39.2989 27.0469C39.0996 27.7969 38.3262 28.2422 37.5762 28.043L32.4551 26.6719C31.9043 26.5254 31.5 26.0625 31.4239 25.5C31.3477 24.9375 31.6231 24.3809 32.1153 24.0996L33.7793 23.1387L31.5821 19.6289C31.2422 19.084 30.6446 18.75 30 18.75C29.3555 18.75 28.7578 19.084 28.418 19.6289L27.3926 21.2695C26.8535 22.1367 25.7168 22.4121 24.8379 21.8848C23.9414 21.3457 23.6543 20.1738 24.211 19.2832L25.2364 17.6426ZM40.166 29.7598C41.045 29.2324 42.1817 29.5078 42.7207 30.375L44.1504 32.666C44.7012 33.5508 44.9942 34.5645 45.0059 35.6074C45.0235 38.7188 42.5039 41.2559 39.3926 41.2559L33.75 41.25V43.125C33.75 43.6934 33.4102 44.209 32.8828 44.4258C32.3555 44.6426 31.752 44.5254 31.3477 44.1211L27.5977 40.3711C27.0469 39.8203 27.0469 38.9297 27.5977 38.3848L31.3477 34.6348C31.752 34.2305 32.3555 34.1133 32.8828 34.3301C33.4102 34.5469 33.75 35.0625 33.75 35.6309V37.5059H39.3867C40.418 37.5059 41.2559 36.6621 41.25 35.6309C41.25 35.2852 41.1504 34.9453 40.9688 34.6523L39.5391 32.3613C38.9825 31.4707 39.2637 30.2988 40.166 29.7598ZM18.8028 27.9434L17.1094 26.9648C16.6172 26.6777 16.3418 26.127 16.418 25.5645C16.4942 25.002 16.8985 24.5391 17.4492 24.3926L22.5703 23.0215C23.3203 22.8223 24.0938 23.2676 24.293 24.0176L25.6641 29.1328C25.8106 29.6836 25.6114 30.2637 25.1602 30.6152C24.709 30.9668 24.0938 31.002 23.6016 30.7148L22.0489 29.8184L19.0313 34.6465C18.8496 34.9395 18.75 35.2793 18.75 35.625C18.7442 36.6563 19.5821 37.5 20.6133 37.5H22.5C23.5371 37.5 24.375 38.3379 24.375 39.375C24.375 40.4121 23.5371 41.25 22.5 41.25H20.6133C17.502 41.25 14.9825 38.7188 15 35.6016C15.0059 34.5586 15.2989 33.5449 15.8555 32.6602L18.8028 27.9434Z" fill="white"/>
</g>
<defs>
<clipPath id="clip0_284_56">
<rect width="30" height="30" fill="white" transform="translate(15 15)"/>
</clipPath>
</defs>
</svg>
