<svg width="60" height="61" viewBox="0 0 60 61" fill="none" xmlns="http://www.w3.org/2000/svg">
<ellipse cx="30" cy="30.0353" rx="30" ry="30.0353" fill="#B22000"/>
<g clip-path="url(#clip0_86_440)">
<path d="M33.75 20.625H26.25L23.4727 16.459C23.0566 15.832 23.502 15 24.252 15H35.748C36.498 15 36.9434 15.832 36.5273 16.459L33.75 20.625ZM26.25 22.5H33.75C33.9727 22.6465 34.2246 22.8105 34.5117 22.9922C37.834 25.1191 45 29.7012 45 39.375C45 42.4805 42.4805 45 39.375 45H20.625C17.5195 45 15 42.4805 15 39.375C15 29.7012 22.166 25.1191 25.4883 22.9922C25.7695 22.8105 26.0273 22.6465 26.25 22.5ZM31.1719 27.6562C31.1719 27.0117 30.6445 26.4844 30 26.4844C29.3555 26.4844 28.8281 27.0117 28.8281 27.6562V28.4766C28.3828 28.5762 27.9375 28.7344 27.5273 28.9746C26.7129 29.4609 26.0098 30.3105 26.0156 31.5469C26.0215 32.7363 26.7187 33.4863 27.4629 33.9316C28.1074 34.3184 28.9102 34.5645 29.5488 34.752L29.6484 34.7813C30.3867 35.0039 30.9258 35.1797 31.2891 35.4082C31.5879 35.5957 31.6289 35.7246 31.6348 35.8887C31.6406 36.1816 31.5293 36.3574 31.2891 36.5039C30.9961 36.6855 30.5332 36.7969 30.0352 36.7793C29.3848 36.7559 28.7754 36.5508 27.9785 36.2813C27.8438 36.2344 27.7031 36.1875 27.5566 36.1406C26.9414 35.9355 26.2793 36.2695 26.0742 36.8789C25.8691 37.4883 26.2031 38.1563 26.8125 38.3613C26.9238 38.3965 27.0469 38.4375 27.1699 38.4844C27.6562 38.6543 28.2187 38.8477 28.8223 38.9766V39.8438C28.8223 40.4883 29.3496 41.0156 29.9941 41.0156C30.6387 41.0156 31.166 40.4883 31.166 39.8438V39.0352C31.6348 38.9355 32.1035 38.7715 32.5254 38.5078C33.3633 37.9863 33.9961 37.0957 33.9785 35.8711C33.9609 34.6816 33.293 33.9141 32.5371 33.4336C31.8633 33.0117 31.0195 32.7539 30.3633 32.5547L30.3223 32.543C29.5723 32.3145 29.0391 32.1504 28.6641 31.9277C28.3594 31.7461 28.3535 31.6406 28.3535 31.5352C28.3535 31.3184 28.4355 31.1543 28.7168 30.9902C29.0332 30.8027 29.5137 30.6914 29.9766 30.6973C30.5391 30.7031 31.1602 30.8262 31.8047 31.002C32.4316 31.166 33.0703 30.7969 33.2402 30.1699C33.4102 29.543 33.0352 28.9043 32.4082 28.7344C32.0273 28.6348 31.6055 28.5352 31.1719 28.459V27.6562Z" fill="white"/>
</g>
<defs>
<clipPath id="clip0_86_440">
<rect width="30" height="30" fill="white" transform="translate(15 15)"/>
</clipPath>
</defs>
</svg>
