<svg width="60" height="61" viewBox="0 0 60 61" fill="none" xmlns="http://www.w3.org/2000/svg">
<ellipse cx="30" cy="30.0353" rx="30" ry="30.0353" fill="#B22000"/>
<path d="M22.9219 21.8789L21.3926 26.25H38.6074L37.0781 21.8789C36.8145 21.1289 36.1055 20.625 35.3086 20.625H24.6914C23.8945 20.625 23.1855 21.1289 22.9219 21.8789ZM17.3203 26.5313L19.3828 20.6426C20.1738 18.3867 22.3008 16.875 24.6914 16.875H35.3086C37.6992 16.875 39.8262 18.3867 40.6172 20.6426L42.6797 26.5313C44.0391 27.0938 45 28.4355 45 30V38.4375V41.25C45 42.2871 44.1621 43.125 43.125 43.125H41.25C40.2129 43.125 39.375 42.2871 39.375 41.25V38.4375H20.625V41.25C20.625 42.2871 19.7871 43.125 18.75 43.125H16.875C15.8379 43.125 15 42.2871 15 41.25V38.4375V30C15 28.4355 15.9609 27.0938 17.3203 26.5313ZM22.5 31.875C22.5 31.3777 22.3025 30.9008 21.9508 30.5492C21.5992 30.1975 21.1223 30 20.625 30C20.1277 30 19.6508 30.1975 19.2992 30.5492C18.9475 30.9008 18.75 31.3777 18.75 31.875C18.75 32.3723 18.9475 32.8492 19.2992 33.2008C19.6508 33.5525 20.1277 33.75 20.625 33.75C21.1223 33.75 21.5992 33.5525 21.9508 33.2008C22.3025 32.8492 22.5 32.3723 22.5 31.875ZM39.375 33.75C39.8723 33.75 40.3492 33.5525 40.7008 33.2008C41.0525 32.8492 41.25 32.3723 41.25 31.875C41.25 31.3777 41.0525 30.9008 40.7008 30.5492C40.3492 30.1975 39.8723 30 39.375 30C38.8777 30 38.4008 30.1975 38.0492 30.5492C37.6975 30.9008 37.5 31.3777 37.5 31.875C37.5 32.3723 37.6975 32.8492 38.0492 33.2008C38.4008 33.5525 38.8777 33.75 39.375 33.75Z" fill="white"/>
</svg>
