<svg width="18" height="24" viewBox="0 0 18 24" fill="none" xmlns="http://www.w3.org/2000/svg">
<g clip-path="url(#clip0_86_510)">
<path d="M10.1109 23.4C12.5156 20.3906 18 13.0969 18 9.00002C18 4.03127 13.9688 1.52588e-05 9 1.52588e-05C4.03125 1.52588e-05 0 4.03127 0 9.00002C0 13.0969 5.48438 20.3906 7.88906 23.4C8.46562 24.1172 9.53438 24.1172 10.1109 23.4ZM9 6.00002C9.79565 6.00002 10.5587 6.31609 11.1213 6.87869C11.6839 7.4413 12 8.20437 12 9.00002C12 9.79566 11.6839 10.5587 11.1213 11.1213C10.5587 11.6839 9.79565 12 9 12C8.20435 12 7.44129 11.6839 6.87868 11.1213C6.31607 10.5587 6 9.79566 6 9.00002C6 8.20437 6.31607 7.4413 6.87868 6.87869C7.44129 6.31609 8.20435 6.00002 9 6.00002Z" fill="#B32000"/>
</g>
<defs>
<clipPath id="clip0_86_510">
<rect width="18" height="24" fill="white"/>
</clipPath>
</defs>
</svg>
