<svg width="20" height="20" viewBox="0 0 20 20" fill="none" xmlns="http://www.w3.org/2000/svg">
<path d="M19.1 14.9L14.5 10.3C14.8 9.4 15 8.5 15 7.5C15 3.4 11.6 0 7.5 0C3.4 0 0 3.4 0 7.5C0 11.6 3.4 15 7.5 15C8.5 15 9.4 14.8 10.2 14.5L14.8 19.1C15.4 19.7 16.1 20 16.9 20C17.7 20 18.5 19.7 19 19.1C19.6 18.5 19.9 17.8 19.9 17C20 16.2 19.7 15.4 19.1 14.9ZM7.5 13C4.5 13 2 10.5 2 7.5C2 4.5 4.5 2 7.5 2C10.5 2 13 4.5 13 7.5C13 10.5 10.5 13 7.5 13ZM17.7 17.7C17.3 18.1 16.7 18.1 16.3 17.7L12 13.5C12.5 13.1 13 12.6 13.4 12.1L17.6 16.3C17.8 16.5 17.9 16.7 17.9 17C18 17.3 17.9 17.5 17.7 17.7Z" fill="#B32000"/>
</svg>
