<svg width="18" height="24" viewBox="0 0 18 24" fill="none" xmlns="http://www.w3.org/2000/svg">
<g clip-path="url(#clip0_86_492)">
<path d="M0.75 3.00002C0.75 1.34533 2.09531 1.52588e-05 3.75 1.52588e-05H14.25C15.9047 1.52588e-05 17.25 1.34533 17.25 3.00002V21C17.25 22.6547 15.9047 24 14.25 24H3.75C2.09531 24 0.75 22.6547 0.75 21V3.00002ZM6.75 21C6.75 21.4125 7.0875 21.75 7.5 21.75H10.5C10.9125 21.75 11.25 21.4125 11.25 21C11.25 20.5875 10.9125 20.25 10.5 20.25H7.5C7.0875 20.25 6.75 20.5875 6.75 21ZM14.25 3.00002H3.75V18H14.25V3.00002Z" fill="#B32000"/>
</g>
<defs>
<clipPath id="clip0_86_492">
<rect width="18" height="24" fill="white"/>
</clipPath>
</defs>
</svg>
