<svg width="56" height="56" viewBox="0 0 56 56" fill="none" xmlns="http://www.w3.org/2000/svg">
<g clip-path="url(#clip0_2503_1640)">
<path d="M44.077 10.464L34.121 23.384C37.8196 24.448 40.7583 26.3227 42.937 29.008C45.1663 31.6933 46.281 34.8853 46.281 38.584C46.281 44.056 44.4316 48.3373 40.733 51.428C37.1356 54.5187 32.6516 56.064 27.281 56.064C23.0756 56.064 19.3516 55.1013 16.109 53.176C12.8663 51.2 10.5103 48.4133 9.04097 44.816L18.009 39.648C19.2756 43.752 22.3663 45.804 27.281 45.804C29.9663 45.804 32.0436 45.1707 33.513 43.904C35.033 42.5867 35.793 40.8133 35.793 38.584C35.793 36.4053 35.033 34.6573 33.513 33.34C32.0436 32.0227 29.9663 31.364 27.281 31.364H25.001L20.973 25.284L31.461 11.604H10.637V1.8H44.077V10.464Z" fill="#C8C8C8"/>
</g>
<defs>
<clipPath id="clip0_2503_1640">
<rect width="56" height="56" fill="white"/>
</clipPath>
</defs>
</svg>
