<svg width="56" height="56" viewBox="0 0 56 56" fill="none" xmlns="http://www.w3.org/2000/svg">
<g clip-path="url(#clip0_2503_1944)">
<path d="M45.4325 55H9.8645V47.172L28.0285 28.476C32.0818 24.1693 34.1085 20.6227 34.1085 17.836C34.1085 15.7587 33.4498 14.0867 32.1325 12.82C30.8658 11.5533 29.2192 10.92 27.1925 10.92C23.1392 10.92 20.1752 12.9973 18.3005 17.152L9.4845 11.984C11.1058 8.38666 13.4618 5.62533 16.5525 3.7C19.6938 1.724 23.1898 0.735996 27.0405 0.735996C31.8538 0.735996 35.9832 2.256 39.4285 5.296C42.8738 8.28533 44.5965 12.3387 44.5965 17.456C44.5965 22.9787 41.6832 28.6533 35.8565 34.48L25.4445 44.892H45.4325V55Z" fill="#C8C8C8"/>
</g>
<defs>
<clipPath id="clip0_2503_1944">
<rect width="56" height="56" fill="white"/>
</clipPath>
</defs>
</svg>
