<svg width="86" height="86" viewBox="0 0 86 86" fill="none" xmlns="http://www.w3.org/2000/svg">
<path fill-rule="evenodd" clip-rule="evenodd" d="M30.2852 66.7891C25.7734 66.7891 22.082 62.9609 22.082 58.5859C22.082 54.0742 25.7734 50.3828 30.2852 50.3828C34.7969 50.3828 38.4883 54.0742 38.4883 58.5859C38.4883 63.0977 34.7969 66.7891 30.2852 66.7891ZM30.2852 52.2969C26.8672 52.2969 24.1328 55.168 24.1328 58.4492C23.9961 62.0039 26.7305 64.7383 30.2852 64.7383C33.7031 64.7383 36.4375 62.0039 36.4375 58.5859C36.4375 55.168 33.7031 52.2969 30.2852 52.2969Z" fill="#B32000"/>
<path fill-rule="evenodd" clip-rule="evenodd" d="M33.5664 78H26.8672C26.3203 78 25.9102 77.5898 25.9102 76.9062V73.4883C24.8164 73.2148 23.7227 72.668 22.7656 72.1211L20.168 74.582C19.7578 74.9922 19.2109 74.9922 18.8008 74.582L14.0156 69.7969C13.6055 69.5234 13.6055 68.8398 14.0156 68.4297L16.4766 65.9688C15.9297 64.875 15.5195 63.918 15.2461 62.8242H11.8281C11.2812 62.8242 10.7344 62.2773 10.7344 61.7305V55.168C10.7344 54.6211 11.2812 54.0742 11.8281 54.0742H15.2461C15.6562 53.1172 16.0664 52.0234 16.6133 51.0664L14.0156 48.4688C13.6055 48.0586 13.6055 47.5117 14.0156 47.1016L18.8008 42.3164C19.2109 41.9062 19.8945 41.9062 20.3047 42.3164L22.7656 44.7773C23.7227 44.2305 24.8164 43.8203 25.9102 43.5469V39.9922C25.9102 39.4453 26.3203 39.0352 27.0039 39.0352H33.7031C34.25 39.0352 34.6602 39.4453 34.6602 39.9922V43.5469C35.7539 43.8203 36.8477 44.2305 37.8047 44.7773L40.2656 42.3164C40.6758 41.9062 41.3594 41.9062 41.7695 42.3164L46.5547 47.1016C46.9648 47.5117 46.9648 48.0586 46.5547 48.4688L43.957 51.0664C44.5039 52.0234 44.9141 53.1172 45.1875 54.2109H48.7422C49.2891 54.2109 49.8359 54.6211 49.8359 55.168V61.8672C49.8359 62.4141 49.2891 62.9609 48.7422 62.9609H45.1875C44.9141 64.0547 44.5039 65.0117 43.957 66.1055L46.418 68.5664C46.8281 68.9766 46.8281 69.5234 46.418 69.9336L41.6328 74.7188C41.2227 75.1289 40.6758 75.1289 40.2656 74.7188L37.668 72.2578C36.7109 72.8047 35.6172 73.2148 34.5234 73.625V77.043C34.5234 77.5898 34.1133 78 33.5664 78ZM27.8242 75.9492H32.6094V72.668C32.6094 72.2578 32.8828 71.8477 33.4297 71.7109C34.7969 71.4375 36.1641 70.8906 37.3945 70.0703C37.8047 69.7969 38.2148 69.9336 38.625 70.207L40.9492 72.5312L44.3672 69.1133L42.043 66.7891C41.6328 66.5156 41.6328 65.9688 41.9062 65.5586C42.5898 64.3281 43.2734 62.9609 43.5469 61.5938C43.6836 61.1836 43.957 60.7734 44.5039 60.7734H47.7852V56.125H44.5039C43.957 56.125 43.6836 55.7148 43.5469 55.3047C43.2734 53.9375 42.5898 52.5703 41.9062 51.3398C41.6328 50.9297 41.6328 50.3828 42.043 50.1094L44.3672 47.7852L40.9492 44.3672L38.625 46.6914C38.2148 47.1016 37.8047 47.1016 37.3945 46.8281C36.1641 46.0078 34.7969 45.4609 33.4297 45.1875C32.8828 45.1875 32.6094 44.7773 32.6094 44.3672V41.0859H27.8242V44.3672C27.8242 44.7773 27.5508 45.1875 27.1406 45.3242C25.7734 45.5977 24.4062 46.2812 23.1758 46.9648C22.7656 47.2383 22.2188 47.2383 21.8086 46.9648L19.4844 44.5039L16.2031 47.9219L18.5273 50.2461C18.8008 50.6562 18.9375 51.0664 18.6641 51.4766C17.8438 52.707 17.2969 54.0742 16.8867 55.4414C16.75 55.9883 16.3398 56.2617 15.9297 56.2617H12.6484V60.9102H16.0664C16.4766 60.9102 16.8867 61.3203 17.0234 61.7305C17.4336 63.0977 17.9805 64.4648 18.6641 65.6953C18.9375 66.1055 18.8008 66.6523 18.5273 66.9258L16.2031 69.25L19.6211 72.668L21.9453 70.3438C22.2188 69.9336 22.7656 69.9336 23.1758 70.207C24.4062 71.0273 25.7734 71.5742 27.1406 71.8477C27.5508 71.9844 27.9609 72.3945 27.9609 72.8047V75.9492H27.8242Z" fill="#B32000"/>
<path fill-rule="evenodd" clip-rule="evenodd" d="M62.4141 55.8516C59.2695 55.8516 56.6719 53.3906 56.6719 50.2461C56.6719 47.1016 59.2695 44.6406 62.4141 44.6406C65.5586 44.6406 68.0195 47.1016 68.0195 50.2461C67.8828 53.3906 65.4219 55.8516 62.4141 55.8516ZM62.4141 46.5547C60.3633 46.5547 58.7227 48.332 58.7227 50.2461C58.7227 52.2969 60.3633 53.9375 62.4141 53.9375C64.3281 53.9375 65.9688 52.2969 65.9688 50.2461C65.9688 48.1953 64.3281 46.5547 62.4141 46.5547Z" fill="#B32000"/>
<path fill-rule="evenodd" clip-rule="evenodd" d="M64.4648 63.0977H60.2266C59.6797 63.0977 59.1328 62.6875 59.1328 62.1406V60.0898C58.5859 59.9531 58.0391 59.6797 57.6289 59.4062L56.125 60.7734C55.9883 60.9102 55.7148 61.0469 55.4414 61.0469C55.168 61.0469 54.8945 60.9102 54.7578 60.7734L51.75 57.7656C51.3398 57.3555 51.3398 56.6719 51.75 56.2617L53.2539 54.8945C52.8438 54.3477 52.707 53.8008 52.5703 53.2539H50.5195C49.9727 53.2539 49.5625 52.8438 49.5625 52.2969V47.9219C49.5625 47.375 49.9727 46.9648 50.5195 46.9648H52.5703C52.707 46.418 52.9805 45.8711 53.2539 45.3242L51.75 43.8203C51.3398 43.5469 51.3398 42.8633 51.75 42.4531L54.7578 39.4453C54.8945 39.1719 55.3047 39.0352 55.4414 39.0352C55.7148 39.0352 55.9883 39.1719 56.125 39.4453L57.6289 40.8125C58.0391 40.5391 58.5859 40.4023 59.1328 40.1289V38.0781C59.1328 37.5312 59.6797 37.1211 60.2266 37.1211H64.4648C65.1484 37.1211 65.5586 37.5312 65.5586 38.0781V40.1289C66.1055 40.2656 66.6523 40.5391 67.1992 40.8125L68.5664 39.3086C68.7031 39.1719 68.9766 39.0352 69.25 39.0352C69.5234 39.0352 69.7969 39.1719 69.9336 39.3086L72.9414 42.4531C73.3516 42.8633 73.3516 43.4102 72.9414 43.8203L71.5742 45.1875C71.8477 45.7344 71.9844 46.2812 72.2578 46.8281H74.1719C74.7188 46.8281 75.2656 47.2383 75.2656 47.9219V52.1602C75.2656 52.707 74.7188 53.2539 74.1719 53.2539H72.2578C71.9844 53.8008 71.8477 54.3477 71.5742 54.7578L72.9414 56.2617C73.3516 56.6719 73.3516 57.2188 72.9414 57.6289L69.9336 60.7734C69.7969 60.9102 69.5234 61.0469 69.25 61.0469C68.9766 61.0469 68.7031 60.9102 68.5664 60.7734L67.1992 59.2695C66.6523 59.543 66.1055 59.8164 65.5586 59.9531V62.0039C65.5586 62.6875 65.0117 63.0977 64.4648 63.0977ZM61.1836 61.1836H63.5078V59.4062C63.5078 58.8594 63.7812 58.5859 64.1914 58.4492C65.1484 58.1758 65.9688 57.9023 66.6523 57.3555C67.0625 57.082 67.6094 57.2188 67.8828 57.4922L69.25 58.7227L70.8906 57.082L69.6602 55.8516C69.25 55.4414 69.25 55.0312 69.3867 54.6211C69.9336 53.8008 70.3438 52.9805 70.4805 52.1602C70.6172 51.75 71.0273 51.3398 71.4375 51.3398H73.2148V49.0156H71.4375C71.0273 49.0156 70.6172 48.7422 70.4805 48.332C70.207 47.5117 69.9336 46.5547 69.3867 45.8711C69.25 45.4609 69.25 44.9141 69.6602 44.6406L70.8906 43.4102L69.25 41.7695L67.8828 43C67.6094 43.4102 67.0625 43.4102 66.6523 43.1367C65.9688 42.7266 65.1484 42.3164 64.1914 42.1797C63.7812 42.043 63.5078 41.6328 63.5078 41.0859V39.4453H61.1836V41.0859C61.1836 41.6328 60.9102 42.043 60.3633 42.1797C59.543 42.3164 58.7227 42.7266 58.0391 43.1367C57.6289 43.4102 57.082 43.2734 56.6719 43L55.4414 41.7695L53.8008 43.4102L55.0312 44.6406C55.4414 44.9141 55.4414 45.4609 55.3047 45.8711C54.7578 46.5547 54.4844 47.5117 54.2109 48.332C54.2109 48.7422 53.8008 49.0156 53.2539 49.0156H51.4766V51.3398H53.2539C53.8008 51.3398 54.2109 51.75 54.2109 52.1602C54.4844 52.9805 54.7578 53.8008 55.3047 54.7578C55.4414 55.168 55.4414 55.5781 55.0312 55.8516L53.8008 57.2188L55.4414 58.8594L56.6719 57.4922C57.082 57.2188 57.6289 57.2188 58.0391 57.3555C58.7227 57.9023 59.543 58.1758 60.3633 58.4492C60.9102 58.5859 61.1836 58.8594 61.1836 59.4062V61.1836Z" fill="#B32000"/>
<path fill-rule="evenodd" clip-rule="evenodd" d="M45.8711 31.2422C42.043 31.2422 38.8984 28.0977 38.8984 24.1328C38.8984 20.3047 42.043 17.1602 45.8711 17.1602C49.6992 17.1602 52.8438 20.3047 52.8438 24.1328C52.8438 28.0977 49.6992 31.2422 45.8711 31.2422ZM45.8711 19.2109C43.1367 19.2109 40.8125 21.3984 40.8125 24.1328C40.8125 26.8672 43 29.1914 45.8711 29.1914C48.6055 29.1914 50.793 27.0039 50.793 24.1328C50.793 21.3984 48.6055 19.2109 45.8711 19.2109Z" fill="#B32000"/>
<path fill-rule="evenodd" clip-rule="evenodd" d="M48.6055 40.4023H43C42.4531 40.4023 42.043 39.9922 42.043 39.4453V36.7109C41.2227 36.4375 40.4023 36.0273 39.582 35.6172L37.668 37.668C37.2578 38.0781 36.7109 38.0781 36.3008 37.668L32.4727 33.8398C32.0625 33.4297 32.0625 32.7461 32.4727 32.3359L34.3867 30.4219C33.9766 29.6016 33.7031 28.7812 33.4297 27.9609H30.5586C30.0117 27.9609 29.6016 27.5508 29.6016 27.0039V21.3984C29.6016 20.8516 30.0117 20.4414 30.5586 20.4414H33.4297C33.5664 19.6211 33.9766 18.8008 34.3867 17.9805L32.4727 16.0664C32.0625 15.6562 32.0625 14.9727 32.4727 14.5625L36.3008 10.7344C36.4375 10.4609 36.7109 10.3242 36.9844 10.3242C37.2578 10.3242 37.5312 10.4609 37.668 10.7344L39.582 12.6484C40.4023 12.375 41.2227 11.9648 42.043 11.6914V8.95703C42.043 8.41016 42.5898 8 43.1367 8H48.6055C49.1523 8 49.6992 8.41016 49.6992 8.95703V11.6914C50.5195 11.9648 51.3398 12.375 52.0234 12.7852L53.9375 10.7344C54.2109 10.5977 54.4844 10.4609 54.6211 10.4609C54.8945 10.4609 55.168 10.5977 55.3047 10.7344L59.2695 14.6992C59.6797 15.1094 59.6797 15.6562 59.2695 16.0664L57.3555 17.9805C57.6289 18.8008 58.0391 19.6211 58.3125 20.4414H61.0469C61.7305 20.4414 62.1406 20.8516 62.1406 21.3984V27.0039C62.1406 27.5508 61.7305 27.9609 61.0469 27.9609H58.3125C58.0391 28.7812 57.7656 29.6016 57.3555 30.4219L59.2695 32.3359C59.6797 32.7461 59.6797 33.4297 59.2695 33.8398L55.3047 37.668C55.168 37.8047 54.8945 37.9414 54.6211 37.9414C54.3477 37.9414 54.2109 37.8047 53.9375 37.668L52.0234 35.6172C51.2031 36.1641 50.3828 36.4375 49.5625 36.7109V39.4453C49.5625 40.1289 49.1523 40.4023 48.6055 40.4023ZM44.0938 38.4883H47.6484V35.8906C47.6484 35.4805 47.9219 35.0703 48.4688 34.9336C49.4258 34.6602 50.5195 34.25 51.75 33.5664C52.1602 33.293 52.5703 33.4297 52.8438 33.7031L54.7578 35.6172L57.2188 33.0195L55.3047 31.2422C55.0312 30.832 54.8945 30.2852 55.3047 30.0117C55.8516 28.918 56.2617 27.8242 56.6719 26.7305C56.6719 26.3203 57.082 25.9102 57.6289 25.9102H60.0898V22.3555H57.6289C57.082 22.3555 56.6719 22.082 56.6719 21.6719C56.2617 20.4414 55.8516 19.3477 55.3047 18.3906C55.0312 17.9805 55.0312 17.4336 55.3047 17.1602L57.2188 15.2461L54.6211 12.7852L52.8438 14.5625C52.5703 14.9727 52.0234 14.9727 51.6133 14.8359C50.6562 14.1523 49.5625 13.7422 48.4688 13.4688C47.9219 13.332 47.6484 12.9219 47.6484 12.375V9.91406H44.0938V12.375C44.0938 12.9219 43.6836 13.332 43.2734 13.4688C42.1797 13.7422 41.0859 14.1523 39.9922 14.8359C39.582 14.9727 39.1719 14.9727 38.7617 14.5625L36.9844 12.7852L34.5234 15.2461L36.3008 17.1602C36.7109 17.4336 36.7109 17.8438 36.5742 18.2539C35.8906 19.4844 35.3438 20.5781 35.207 21.6719C35.0703 22.082 34.6602 22.3555 34.1133 22.3555H31.6523V26.0469H34.1133C34.6602 26.0469 35.0703 26.3203 35.207 26.7305C35.3438 27.8242 35.8906 28.918 36.5742 30.0117C36.7109 30.4219 36.7109 30.9688 36.4375 31.2422L34.5234 33.0195L37.1211 35.6172L38.8984 33.7031C39.3086 33.4297 39.7188 33.293 40.1289 33.5664C41.2227 34.25 42.3164 34.6602 43.4102 34.9336C43.8203 35.0703 44.2305 35.4805 44.2305 35.8906V38.4883H44.0938Z" fill="#B32000"/>
</svg>
