<svg width="40" height="40" viewBox="0 0 40 40" fill="none" xmlns="http://www.w3.org/2000/svg">
<path d="M33.5243 15.9999C32.8858 15.9992 32.2618 16.191 31.7339 16.5503C31.5753 16.0872 31.3119 15.6669 30.9643 15.3222C30.6166 14.9775 30.1942 14.7177 29.7298 14.5628C29.2654 14.408 28.7715 14.3625 28.2866 14.4297C27.8017 14.4969 27.3388 14.675 26.934 14.9503C26.7836 14.5036 26.5351 14.0963 26.2068 13.7582C25.8786 13.42 25.4788 13.1596 25.0367 12.9961C24.5947 12.8325 24.1217 12.77 23.6524 12.813C23.1831 12.856 22.7293 13.0035 22.3244 13.2447V3.19998C22.3244 2.35129 21.9873 1.53736 21.3872 0.937252C20.787 0.337139 19.9731 0 19.1244 0C18.2757 0 17.4618 0.337139 16.8617 0.937252C16.2616 1.53736 15.9245 2.35129 15.9245 3.19998V25.5566C15.926 25.5988 15.9142 25.6405 15.8906 25.6755C15.867 25.7106 15.8329 25.7373 15.7933 25.7518C15.755 25.7702 15.7119 25.7756 15.6703 25.7672C15.6287 25.7588 15.591 25.7371 15.5629 25.7054L13.0125 23.1566C12.2722 22.4104 11.3375 21.8868 10.3144 21.6452C9.29144 21.4037 8.22119 21.4539 7.22532 21.7903C6.87897 21.9052 6.56384 22.0985 6.30444 22.3552C6.04505 22.6119 5.84839 22.925 5.72979 23.2701C5.6112 23.6152 5.57385 23.983 5.62067 24.3449C5.66749 24.7068 5.79721 25.0531 5.99972 25.3566L11.2589 33.243C12.076 34.4772 12.9973 35.6393 14.0125 36.7165C15.0273 37.7647 16.2442 38.596 17.5896 39.1603C18.9349 39.7246 20.3807 40.0102 21.8396 39.9997H25.8396C28.0351 40.0068 30.1818 39.3522 31.9999 38.1213C33.8179 36.8903 35.2228 35.1402 36.0315 33.099C36.4941 31.9468 36.7309 30.7165 36.7291 29.475V19.1999C36.7291 18.7792 36.6462 18.3627 36.4851 17.9742C36.324 17.5856 36.0878 17.2327 35.7902 16.9354C35.4925 16.6382 35.1392 16.4026 34.7504 16.2421C34.3616 16.0816 33.945 15.9993 33.5243 15.9999ZM35.1243 29.475C35.125 30.5125 34.9273 31.5405 34.5419 32.5038C33.8512 34.2477 32.651 35.7431 31.0978 36.7948C29.5446 37.8465 27.7105 38.4058 25.8348 38.3997H21.8348C20.5932 38.4103 19.3623 38.1692 18.2164 37.691C17.0705 37.2128 16.0334 36.5074 15.1677 35.6174C14.216 34.6056 13.3521 33.5147 12.5853 32.3566L7.33092 24.4702C7.26504 24.3709 7.22297 24.2578 7.20799 24.1395C7.193 24.0213 7.2055 23.9012 7.24452 23.7886C7.28228 23.6771 7.34523 23.5758 7.42847 23.4926C7.51172 23.4094 7.61301 23.3464 7.72451 23.3086C8.44005 23.066 9.20933 23.0292 9.94477 23.2023C10.6802 23.3754 11.3523 23.7515 11.8845 24.2878L14.4349 26.8366C14.6881 27.0902 15.0108 27.2629 15.3622 27.333C15.7137 27.4031 16.078 27.3674 16.4091 27.2303C16.7402 27.0933 17.0232 26.8611 17.2223 26.5632C17.4214 26.2653 17.5277 25.915 17.5276 25.5566V3.19998C17.5276 2.77563 17.6962 2.36867 17.9963 2.06861C18.2963 1.76856 18.7033 1.59999 19.1276 1.59999C19.552 1.59999 19.9589 1.76856 20.259 2.06861C20.5591 2.36867 20.7276 2.77563 20.7276 3.19998V17.5999C20.7276 17.812 20.8119 18.0155 20.9619 18.1656C21.112 18.3156 21.3154 18.3999 21.5276 18.3999C21.7398 18.3999 21.9433 18.3156 22.0933 18.1656C22.2433 18.0155 22.3276 17.812 22.3276 17.5999V15.9999C22.3276 15.5755 22.4962 15.1686 22.7962 14.8685C23.0963 14.5685 23.5033 14.3999 23.9276 14.3999C24.3519 14.3999 24.7589 14.5685 25.059 14.8685C25.359 15.1686 25.5276 15.5755 25.5276 15.9999V18.3999C25.5276 18.612 25.6119 18.8155 25.7619 18.9656C25.9119 19.1156 26.1154 19.1999 26.3276 19.1999C26.5398 19.1999 26.7432 19.1156 26.8933 18.9656C27.0433 18.8155 27.1276 18.612 27.1276 18.3999V17.5999C27.1276 17.1755 27.2961 16.7686 27.5962 16.4685C27.8963 16.1685 28.3032 15.9999 28.7276 15.9999C29.1519 15.9999 29.5589 16.1685 29.8589 16.4685C30.159 16.7686 30.3276 17.1755 30.3276 17.5999V19.9999C30.3276 20.212 30.4118 20.4155 30.5619 20.5655C30.7119 20.7156 30.9154 20.7999 31.1276 20.7999C31.3397 20.7999 31.5432 20.7156 31.6932 20.5655C31.8433 20.4155 31.9275 20.212 31.9275 19.9999V19.1999C31.9275 18.7755 32.0961 18.3686 32.3962 18.0685C32.6962 17.7684 33.1032 17.5999 33.5275 17.5999C33.9519 17.5999 34.3588 17.7684 34.6589 18.0685C34.959 18.3686 35.1275 18.7755 35.1275 19.1999L35.1243 29.475Z" fill="#B32000"/>
<path d="M25.6013 6.39979H31.67L29.8348 8.23338C29.6846 8.3836 29.6002 8.58734 29.6002 8.79978C29.6002 9.01222 29.6846 9.21595 29.8348 9.36617C29.9851 9.51639 30.1888 9.60078 30.4012 9.60078C30.6137 9.60078 30.8174 9.51639 30.9676 9.36617L34.1676 6.16619C34.2421 6.09188 34.3012 6.0036 34.3415 5.90641C34.3819 5.80922 34.4026 5.70503 34.4026 5.5998C34.4026 5.49457 34.3819 5.39038 34.3415 5.29319C34.3012 5.196 34.2421 5.10772 34.1676 5.0334L30.9676 1.83342C30.8174 1.68321 30.6137 1.59882 30.4012 1.59882C30.1888 1.59882 29.9851 1.68321 29.8348 1.83342C29.6846 1.98364 29.6002 2.18738 29.6002 2.39982C29.6002 2.61226 29.6846 2.816 29.8348 2.96622L31.67 4.7998H25.6013C25.3891 4.7998 25.1856 4.88409 25.0356 5.03412C24.8856 5.18415 24.8013 5.38763 24.8013 5.5998C24.8013 5.81197 24.8856 6.01545 25.0356 6.16548C25.1856 6.31551 25.3891 6.39979 25.6013 6.39979Z" fill="#B32000"/>
<path d="M8.0014 9.59977C8.15983 9.60005 8.31478 9.55329 8.4466 9.4654C8.57843 9.37752 8.68118 9.25247 8.74185 9.10612C8.80252 8.95976 8.81836 8.79868 8.78738 8.64331C8.75639 8.48794 8.67997 8.34527 8.5678 8.23338L6.73261 6.39979H12.8014C13.0135 6.39979 13.217 6.31551 13.3671 6.16548C13.5171 6.01545 13.6014 5.81197 13.6014 5.5998C13.6014 5.38763 13.5171 5.18415 13.3671 5.03412C13.217 4.88409 13.0135 4.7998 12.8014 4.7998H6.73261L8.5678 2.96622C8.71802 2.816 8.80241 2.61226 8.80241 2.39982C8.80241 2.18738 8.71802 1.98364 8.5678 1.83342C8.41758 1.68321 8.21384 1.59882 8.0014 1.59882C7.78896 1.59882 7.58522 1.68321 7.43501 1.83342L4.23503 5.0334C4.16053 5.10772 4.10142 5.196 4.06109 5.29319C4.02076 5.39038 4 5.49457 4 5.5998C4 5.70503 4.02076 5.80922 4.06109 5.90641C4.10142 6.0036 4.16053 6.09188 4.23503 6.16619L7.43501 9.36617C7.50944 9.44041 7.59777 9.49926 7.69496 9.53934C7.79214 9.57942 7.89628 9.59996 8.0014 9.59977Z" fill="#B32000"/>
</svg>
